<svg  width="33" height="32" viewBox="0 0 33 32" fill="none" xmlns="http://www.w3.org/2000/svg">
<g clip-path="url(#clip0_3_22)">
<path d="M30.0695 16.5564L27.7335 8.66792C26.98 6.1261 25.3444 3.89389 23.0867 2.32592C20.829 0.75796 18.0786 -0.0558112 15.2724 0.0138989C12.4663 0.0836092 9.7654 1.0328 7.59891 2.71067C5.43242 4.38854 3.92455 6.69885 3.31488 9.27454L1.50955 16.906C1.27139 17.9136 1.27695 18.9586 1.52586 19.9639C1.77475 20.9691 2.26062 21.9091 2.9476 22.7142C3.63458 23.5194 4.50515 24.1692 5.49503 24.6159C6.48492 25.0625 7.56887 25.2945 8.66688 25.2946H9.20022C9.62452 26.674 10.5141 27.8864 11.7351 28.7492C12.956 29.6119 14.442 30.0784 15.9695 30.0784C17.497 30.0784 18.9831 29.6119 20.204 28.7492C21.425 27.8864 22.3146 26.674 22.7388 25.2946H22.9962C24.1268 25.2947 25.242 25.0492 26.255 24.5771C27.2679 24.1049 28.1508 23.419 28.8351 22.573C29.5192 21.727 29.9862 20.7436 30.1991 19.7C30.412 18.6562 30.3655 17.5803 30.0628 16.5564H30.0695ZM25.6575 20.2963C25.348 20.6827 24.947 20.9958 24.486 21.2107C24.0252 21.4257 23.5174 21.5366 23.0028 21.5346H8.66688C8.16783 21.5346 7.67516 21.4291 7.22524 21.2261C6.77532 21.0231 6.37964 20.7278 6.06738 20.3619C5.75512 19.9959 5.53427 19.5687 5.4211 19.1118C5.30794 18.6549 5.30536 18.1799 5.41355 17.722L7.21888 10.0767C7.63344 8.31708 8.66228 6.73842 10.1416 5.59198C11.6209 4.44554 13.4658 3.79723 15.3824 3.75025C17.299 3.70326 19.1772 4.2603 20.7182 5.33269C22.259 6.40509 23.374 7.9312 23.8855 9.66808L26.2162 17.5565C26.3568 18.0225 26.3795 18.5131 26.2826 18.9887C26.1855 19.4645 25.9715 19.9123 25.6575 20.2963Z" fill="white"/>
</g>
<defs>
<clipPath id="clip0_3_22">
<rect width="32" height="30.08" fill="white"/>
</clipPath>
</defs>
</svg>
