<svg width="33" height="32" viewBox="0 0 33 32" fill="none" xmlns="http://www.w3.org/2000/svg">
<path d="M9.33268 32.0013C10.8054 32.0013 11.9993 30.8074 11.9993 29.3346C11.9993 27.8618 10.8054 26.668 9.33268 26.668C7.85992 26.668 6.66602 27.8618 6.66602 29.3346C6.66602 30.8074 7.85992 32.0013 9.33268 32.0013Z" fill="white"/>
<path d="M22.6667 32.0013C24.1395 32.0013 25.3333 30.8074 25.3333 29.3346C25.3333 27.8618 24.1395 26.668 22.6667 26.668C21.1939 26.668 20 27.8618 20 29.3346C20 30.8074 21.1939 32.0013 22.6667 32.0013Z" fill="white"/>
<path d="M30.6453 8.024C29.7068 7.12652 28.4503 6.63833 27.152 6.66667H7.53867L7.188 3.91733C7.06067 2.83825 6.54184 1.84341 5.72987 1.12138C4.91789 0.399357 3.86923 0.000349169 2.78267 0H2C1.46957 0 0.960859 0.210713 0.585787 0.585787C0.210713 0.960859 0 1.46957 0 2C0 2.53043 0.210713 3.03915 0.585787 3.41421C0.960859 3.78928 1.46957 4 2 4H2.78267C2.89175 4.00117 2.99652 4.04269 3.07679 4.11656C3.15705 4.19043 3.20712 4.2914 3.21733 4.4L5.21733 20.08C5.34379 21.1597 5.86227 22.1553 6.67436 22.878C7.48645 23.6005 8.53561 23.9999 9.62267 24H23.1187C24.7241 23.9991 26.2848 23.4713 27.5613 22.4977C28.838 21.5243 29.7597 20.1587 30.1853 18.6107L31.8467 12.5693C32.0681 11.7733 32.0736 10.9326 31.8624 10.1337C31.6513 9.33488 31.2312 8.60668 30.6453 8.024ZM26.3333 17.5507C26.1381 18.2537 25.7183 18.8737 25.1379 19.3159C24.5575 19.7581 23.8484 19.9984 23.1187 20H9.62267C9.51364 19.9991 9.40887 19.9576 9.32876 19.8837C9.24864 19.8097 9.19893 19.7087 9.18933 19.6L8.04933 10.6667H27.352C27.4549 10.6659 27.5568 10.689 27.6493 10.7341C27.7419 10.7793 27.8227 10.8453 27.8855 10.9269C27.9483 11.0086 27.9912 11.1036 28.0111 11.2047C28.0309 11.3057 28.0272 11.41 28 11.5093L26.3333 17.5507Z" fill="white"/>
</svg>
