<svg width="179" height="23" viewBox="0 0 179 23" fill="none" xmlns="http://www.w3.org/2000/svg">
<path d="M15.762 7.645C15.24 6.63967 14.515 5.88567 13.587 5.383C12.659 4.861 11.586 4.6 10.368 4.6C9.034 4.6 7.845 4.89967 6.801 5.499C5.757 6.09833 4.93533 6.949 4.336 8.051C3.756 9.153 3.466 10.429 3.466 11.879C3.466 13.329 3.756 14.6147 4.336 15.736C4.93533 16.838 5.757 17.6887 6.801 18.288C7.845 18.8873 9.034 19.187 10.368 19.187C12.166 19.187 13.6257 18.6843 14.747 17.679C15.8683 16.6737 16.5547 15.3107 16.806 13.59H9.237V10.951H20.344V13.532C20.1313 15.098 19.5707 16.5383 18.662 17.853C17.7727 19.1677 16.603 20.2213 15.153 21.014C13.7223 21.7873 12.1273 22.174 10.368 22.174C8.47333 22.174 6.743 21.739 5.177 20.869C3.611 19.9797 2.364 18.752 1.436 17.186C0.527333 15.62 0.073 13.851 0.073 11.879C0.073 9.907 0.527333 8.138 1.436 6.572C2.364 5.006 3.611 3.788 5.177 2.918C6.76233 2.02867 8.49267 1.584 10.368 1.584C12.514 1.584 14.4183 2.11567 16.081 3.179C17.763 4.223 18.981 5.71167 19.735 7.645H15.762ZM26.9107 8.341C27.394 7.529 28.032 6.90067 28.8247 6.456C29.6367 5.992 30.5937 5.76 31.6957 5.76V9.182H30.8547C29.5594 9.182 28.5734 9.51067 27.8967 10.168C27.2394 10.8253 26.9107 11.966 26.9107 13.59V22H23.6047V6.021H26.9107V8.341ZM49.3796 13.619C49.3796 14.2183 49.3409 14.7597 49.2636 15.243H37.0546C37.1512 16.519 37.6249 17.5437 38.4756 18.317C39.3262 19.0903 40.3702 19.477 41.6076 19.477C43.3862 19.477 44.6429 18.7327 45.3776 17.244H48.9446C48.4612 18.7133 47.5816 19.9217 46.3056 20.869C45.0489 21.797 43.4829 22.261 41.6076 22.261C40.0802 22.261 38.7076 21.9227 37.4896 21.246C36.2909 20.55 35.3436 19.5833 34.6476 18.346C33.9709 17.0893 33.6326 15.6393 33.6326 13.996C33.6326 12.3527 33.9612 10.9123 34.6186 9.675C35.2952 8.41833 36.2329 7.45167 37.4316 6.775C38.6496 6.09833 40.0416 5.76 41.6076 5.76C43.1156 5.76 44.4592 6.08867 45.6386 6.746C46.8179 7.40333 47.7362 8.33133 48.3936 9.53C49.0509 10.7093 49.3796 12.0723 49.3796 13.619ZM45.9286 12.575C45.9092 11.357 45.4742 10.3807 44.6236 9.646C43.7729 8.91133 42.7192 8.544 41.4626 8.544C40.3219 8.544 39.3456 8.91133 38.5336 9.646C37.7216 10.3613 37.2382 11.3377 37.0836 12.575H45.9286ZM67.278 13.619C67.278 14.2183 67.2393 14.7597 67.162 15.243H54.953C55.0497 16.519 55.5233 17.5437 56.374 18.317C57.2247 19.0903 58.2687 19.477 59.506 19.477C61.2847 19.477 62.5413 18.7327 63.276 17.244H66.843C66.3597 18.7133 65.48 19.9217 64.204 20.869C62.9473 21.797 61.3813 22.261 59.506 22.261C57.9787 22.261 56.606 21.9227 55.388 21.246C54.1893 20.55 53.242 19.5833 52.546 18.346C51.8693 17.0893 51.531 15.6393 51.531 13.996C51.531 12.3527 51.8597 10.9123 52.517 9.675C53.1937 8.41833 54.1313 7.45167 55.33 6.775C56.548 6.09833 57.94 5.76 59.506 5.76C61.014 5.76 62.3577 6.08867 63.537 6.746C64.7163 7.40333 65.6347 8.33133 66.292 9.53C66.9493 10.7093 67.278 12.0723 67.278 13.619ZM63.827 12.575C63.8077 11.357 63.3727 10.3807 62.522 9.646C61.6713 8.91133 60.6177 8.544 59.361 8.544C58.2203 8.544 57.244 8.91133 56.432 9.646C55.62 10.3613 55.1367 11.3377 54.982 12.575H63.827ZM78.5934 5.76C79.8501 5.76 80.9714 6.021 81.9574 6.543C82.9628 7.065 83.7458 7.83833 84.3064 8.863C84.8671 9.88767 85.1474 11.125 85.1474 12.575V22H81.8704V13.068C81.8704 11.6373 81.5128 10.545 80.7974 9.791C80.0821 9.01767 79.1058 8.631 77.8684 8.631C76.6311 8.631 75.6451 9.01767 74.9104 9.791C74.1951 10.545 73.8374 11.6373 73.8374 13.068V22H70.5314V6.021H73.8374V7.848C74.3788 7.19067 75.0651 6.67833 75.8964 6.311C76.7471 5.94367 77.6461 5.76 78.5934 5.76Z" fill="#90F280"/>
<path d="M100.152 11.647C101.235 11.8403 102.153 12.4107 102.907 13.358C103.661 14.3053 104.038 15.3783 104.038 16.577C104.038 17.6017 103.768 18.5297 103.226 19.361C102.704 20.173 101.941 20.8207 100.935 21.304C99.9301 21.768 98.7605 22 97.4265 22H89.3645V1.845H97.0495C98.4221 1.845 99.6015 2.077 100.587 2.541C101.573 3.005 102.318 3.63333 102.82 4.426C103.323 5.19933 103.574 6.06933 103.574 7.036C103.574 8.196 103.265 9.16267 102.646 9.936C102.028 10.7093 101.196 11.2797 100.152 11.647ZM92.6705 10.313H96.7595C97.8421 10.313 98.6831 10.0713 99.2825 9.588C99.9011 9.08533 100.21 8.37 100.21 7.442C100.21 6.53333 99.9011 5.82767 99.2825 5.325C98.6831 4.803 97.8421 4.542 96.7595 4.542H92.6705V10.313ZM97.1365 19.303C98.2578 19.303 99.1375 19.0323 99.7755 18.491C100.413 17.9497 100.732 17.1957 100.732 16.229C100.732 15.243 100.394 14.46 99.7175 13.88C99.0408 13.3 98.1418 13.01 97.0205 13.01H92.6705V19.303H97.1365ZM110.937 0.54V22H107.631V0.54H110.937ZM122.209 22.261C120.701 22.261 119.338 21.9227 118.12 21.246C116.902 20.55 115.945 19.5833 115.249 18.346C114.553 17.0893 114.205 15.6393 114.205 13.996C114.205 12.372 114.562 10.9317 115.278 9.675C115.993 8.41833 116.969 7.45167 118.207 6.775C119.444 6.09833 120.826 5.76 122.354 5.76C123.881 5.76 125.263 6.09833 126.501 6.775C127.738 7.45167 128.714 8.41833 129.43 9.675C130.145 10.9317 130.503 12.372 130.503 13.996C130.503 15.62 130.135 17.0603 129.401 18.317C128.666 19.5737 127.661 20.55 126.385 21.246C125.128 21.9227 123.736 22.261 122.209 22.261ZM122.209 19.39C123.059 19.39 123.852 19.187 124.587 18.781C125.341 18.375 125.95 17.766 126.414 16.954C126.878 16.142 127.11 15.156 127.11 13.996C127.11 12.836 126.887 11.8597 126.443 11.067C125.998 10.255 125.408 9.646 124.674 9.24C123.939 8.834 123.146 8.631 122.296 8.631C121.445 8.631 120.652 8.834 119.918 9.24C119.202 9.646 118.632 10.255 118.207 11.067C117.781 11.8597 117.569 12.836 117.569 13.996C117.569 15.7167 118.004 17.0507 118.874 17.998C119.763 18.926 120.875 19.39 122.209 19.39ZM140.702 22.261C139.194 22.261 137.831 21.9227 136.613 21.246C135.395 20.55 134.438 19.5833 133.742 18.346C133.046 17.0893 132.698 15.6393 132.698 13.996C132.698 12.372 133.055 10.9317 133.771 9.675C134.486 8.41833 135.462 7.45167 136.7 6.775C137.937 6.09833 139.319 5.76 140.847 5.76C142.374 5.76 143.756 6.09833 144.994 6.775C146.231 7.45167 147.207 8.41833 147.923 9.675C148.638 10.9317 148.996 12.372 148.996 13.996C148.996 15.62 148.628 17.0603 147.894 18.317C147.159 19.5737 146.154 20.55 144.878 21.246C143.621 21.9227 142.229 22.261 140.702 22.261ZM140.702 19.39C141.552 19.39 142.345 19.187 143.08 18.781C143.834 18.375 144.443 17.766 144.907 16.954C145.371 16.142 145.603 15.156 145.603 13.996C145.603 12.836 145.38 11.8597 144.936 11.067C144.491 10.255 143.901 9.646 143.167 9.24C142.432 8.834 141.639 8.631 140.789 8.631C139.938 8.631 139.145 8.834 138.411 9.24C137.695 9.646 137.125 10.255 136.7 11.067C136.274 11.8597 136.062 12.836 136.062 13.996C136.062 15.7167 136.497 17.0507 137.367 17.998C138.256 18.926 139.368 19.39 140.702 19.39ZM171.607 5.76C172.864 5.76 173.985 6.021 174.971 6.543C175.976 7.065 176.759 7.83833 177.32 8.863C177.9 9.88767 178.19 11.125 178.19 12.575V22H174.913V13.068C174.913 11.6373 174.555 10.545 173.84 9.791C173.125 9.01767 172.148 8.631 170.911 8.631C169.674 8.631 168.688 9.01767 167.953 9.791C167.238 10.545 166.88 11.6373 166.88 13.068V22H163.603V13.068C163.603 11.6373 163.245 10.545 162.53 9.791C161.815 9.01767 160.838 8.631 159.601 8.631C158.364 8.631 157.378 9.01767 156.643 9.791C155.928 10.545 155.57 11.6373 155.57 13.068V22H152.264V6.021H155.57V7.848C156.111 7.19067 156.798 6.67833 157.629 6.311C158.46 5.94367 159.35 5.76 160.297 5.76C161.573 5.76 162.714 6.03067 163.719 6.572C164.724 7.11333 165.498 7.89633 166.039 8.921C166.522 7.95433 167.276 7.19067 168.301 6.63C169.326 6.05 170.428 5.76 171.607 5.76Z" fill="white"/>
</svg>
