<svg width="41" height="22" viewBox="0 0 41 22" fill="none" xmlns="http://www.w3.org/2000/svg">
<path d="M15.312 7.08C14.9447 6.40333 14.413 5.891 13.717 5.543C13.0403 5.17567 12.238 4.992 11.31 4.992C9.70533 4.992 8.41967 5.52367 7.453 6.587C6.48633 7.631 6.003 9.03267 6.003 10.792C6.003 12.6673 6.50567 14.1367 7.511 15.2C8.53567 16.244 9.93733 16.766 11.716 16.766C12.934 16.766 13.9587 16.4567 14.79 15.838C15.6407 15.2193 16.2593 14.33 16.646 13.17H10.353V9.516H21.141V14.127C20.7737 15.3643 20.1453 16.5147 19.256 17.578C18.386 18.6413 17.2743 19.5017 15.921 20.159C14.5677 20.8163 13.0403 21.145 11.339 21.145C9.32833 21.145 7.53033 20.71 5.945 19.84C4.379 18.9507 3.15133 17.723 2.262 16.157C1.392 14.591 0.957 12.8027 0.957 10.792C0.957 8.78133 1.392 6.993 2.262 5.427C3.15133 3.84167 4.379 2.614 5.945 1.744C7.511 0.854666 9.29933 0.409999 11.31 0.409999C13.746 0.409999 15.7953 0.999665 17.458 2.179C19.14 3.35833 20.2517 4.992 20.793 7.08H15.312Z" fill="#90F280"/>
<path d="M36.2128 10.56C37.3922 10.8113 38.3395 11.401 39.0548 12.329C39.7702 13.2377 40.1278 14.2817 40.1278 15.461C40.1278 17.1623 39.5285 18.5157 38.3298 19.521C37.1505 20.507 35.4975 21 33.3708 21H23.8878V0.641999H33.0518C35.1205 0.641999 36.7348 1.11567 37.8948 2.063C39.0742 3.01033 39.6638 4.296 39.6638 5.92C39.6638 7.11867 39.3448 8.11433 38.7068 8.907C38.0882 9.69967 37.2568 10.2507 36.2128 10.56ZM28.8468 8.878H32.0948C32.9068 8.878 33.5255 8.704 33.9508 8.356C34.3955 7.98867 34.6178 7.457 34.6178 6.761C34.6178 6.065 34.3955 5.53333 33.9508 5.166C33.5255 4.79867 32.9068 4.615 32.0948 4.615H28.8468V8.878ZM32.5008 16.998C33.3322 16.998 33.9702 16.8143 34.4148 16.447C34.8788 16.0603 35.1108 15.5093 35.1108 14.794C35.1108 14.0787 34.8692 13.518 34.3858 13.112C33.9218 12.706 33.2742 12.503 32.4428 12.503H28.8468V16.998H32.5008Z" fill="white"/>
</svg>
