<svg width="32" height="32" viewBox="0 0 32 32" fill="none" xmlns="http://www.w3.org/2000/svg">
<path d="M10.666 9.33203H29.9993C30.5297 9.33203 31.0385 9.12131 31.4136 8.74624C31.7887 8.37118 31.9993 7.86246 31.9993 7.33203C31.9993 6.8016 31.7887 6.29288 31.4136 5.91782C31.0385 5.54275 30.5297 5.33203 29.9993 5.33203H10.666C10.1356 5.33203 9.62687 5.54275 9.2518 5.91782C8.87674 6.29288 8.66602 6.8016 8.66602 7.33203C8.66602 7.86246 8.87674 8.37118 9.2518 8.74624C9.62687 9.12131 10.1356 9.33203 10.666 9.33203Z" fill="#0A0909"/>
<path d="M29.9993 14.668H10.666C10.1356 14.668 9.62687 14.8786 9.2518 15.2537C8.87674 15.6288 8.66602 16.1376 8.66602 16.668C8.66602 17.1984 8.87674 17.7072 9.2518 18.0822C9.62687 18.4573 10.1356 18.668 10.666 18.668H29.9993C30.5297 18.668 31.0385 18.4573 31.4136 18.0822C31.7887 17.7072 31.9993 17.1984 31.9993 16.668C31.9993 16.1376 31.7887 15.6288 31.4136 15.2537C31.0385 14.8786 30.5297 14.668 29.9993 14.668Z" fill="#0A0909"/>
<path d="M29.9993 24H10.666C10.1356 24 9.62687 24.2107 9.2518 24.5857C8.87674 24.9608 8.66602 25.4696 8.66602 26C8.66602 26.5304 8.87674 27.0392 9.2518 27.4143C9.62687 27.7893 10.1356 28 10.666 28H29.9993C30.5297 28 31.0385 27.7893 31.4136 27.4143C31.7887 27.0392 31.9993 26.5304 31.9993 26C31.9993 25.4696 31.7887 24.9608 31.4136 24.5857C31.0385 24.2107 30.5297 24 29.9993 24Z" fill="#0A0909"/>
<path d="M3.33333 10.6667C5.17428 10.6667 6.66667 9.17428 6.66667 7.33333C6.66667 5.49239 5.17428 4 3.33333 4C1.49239 4 0 5.49239 0 7.33333C0 9.17428 1.49239 10.6667 3.33333 10.6667Z" fill="#0A0909"/>
<path d="M3.33333 19.3346C5.17428 19.3346 6.66667 17.8422 6.66667 16.0013C6.66667 14.1604 5.17428 12.668 3.33333 12.668C1.49239 12.668 0 14.1604 0 16.0013C0 17.8422 1.49239 19.3346 3.33333 19.3346Z" fill="#0A0909"/>
<path d="M3.33333 28.6667C5.17428 28.6667 6.66667 27.1743 6.66667 25.3333C6.66667 23.4924 5.17428 22 3.33333 22C1.49239 22 0 23.4924 0 25.3333C0 27.1743 1.49239 28.6667 3.33333 28.6667Z" fill="#0A0909"/>
</svg>
