<svg width="21" height="24" viewBox="0 0 21 24" fill="none" xmlns="http://www.w3.org/2000/svg">
<path d="M10.5 0C7.71628 0.00344012 5.04756 1.11079 3.07918 3.07918C1.11079 5.04756 0.00344 7.71628 0 10.5C0 13.326 2.2 17.266 6.541 22.209C7.03604 22.7715 7.64526 23.2222 8.32808 23.5308C9.0109 23.8395 9.7517 23.9992 10.501 23.9992C11.2503 23.9992 11.9911 23.8395 12.6739 23.5308C13.3567 23.2222 13.966 22.7715 14.461 22.209C18.8 17.267 21 13.327 21 10.5C20.9966 7.71628 19.8892 5.04756 17.9208 3.07918C15.9524 1.11079 13.2837 0.00344012 10.5 0ZM12.206 20.231C11.9879 20.4654 11.7239 20.6524 11.4304 20.7802C11.1369 20.9081 10.8202 20.974 10.5 20.974C10.1798 20.974 9.8631 20.9081 9.5696 20.7802C9.2761 20.6524 9.0121 20.4654 8.794 20.231C5.111 16.036 2.994 12.489 2.994 10.501C2.994 8.51188 3.78418 6.60422 5.1907 5.1977C6.59722 3.79118 8.5049 3.001 10.494 3.001C12.4831 3.001 14.3908 3.79118 15.7973 5.1977C17.2038 6.60422 17.994 8.51188 17.994 10.501C18 12.489 15.889 16.036 12.206 20.231Z" fill="#8DDCED"/>
<path d="M10.4997 6.05469C9.63683 6.05469 8.79323 6.31058 8.07577 6.78999C7.35828 7.2694 6.79906 7.95081 6.46884 8.74805C6.13861 9.54528 6.05221 10.4225 6.22056 11.2688C6.38891 12.1152 6.80444 12.8926 7.41462 13.5028C8.02479 14.1129 8.80223 14.5285 9.64853 14.6968C10.4949 14.8652 11.3721 14.7788 12.1693 14.4485C12.9666 14.1183 13.648 13.5591 14.1274 12.8416C14.6068 12.1241 14.8627 11.2806 14.8627 10.4177C14.8614 9.26096 14.4013 8.15198 13.5833 7.33405C12.7654 6.51611 11.6564 6.05602 10.4997 6.05469ZM10.4997 11.7807C10.2301 11.7807 9.96663 11.7007 9.74253 11.5509C9.51833 11.4012 9.34363 11.1883 9.24043 10.9393C9.13733 10.6902 9.11033 10.4161 9.16293 10.1517C9.21553 9.88739 9.34533 9.64453 9.53593 9.45391C9.72653 9.26329 9.96943 9.13348 10.2338 9.08088C10.4982 9.02829 10.7722 9.05528 11.0213 9.15845C11.2703 9.26161 11.4832 9.43631 11.633 9.66045C11.7828 9.8846 11.8627 10.1481 11.8627 10.4177C11.8624 10.7791 11.7187 11.1256 11.4632 11.3811C11.2076 11.6367 10.8611 11.7804 10.4997 11.7807Z" fill="#8DDCED"/>
</svg>
