<svg width="24" height="24"  viewBox="0 0 12 14" fill="none" xmlns="http://www.w3.org/2000/svg">
<path d="M9.84022 1.24848L6.18564 0.0298905C6.066 -0.00996349 5.93661 -0.00996349 5.81697 0.0298905L2.16239 1.24848C1.58133 1.44149 1.07588 1.8127 0.717849 2.30939C0.359811 2.80607 0.16741 3.40295 0.16797 4.01523V7.00014C0.16797 11.4119 5.53464 13.8485 5.76447 13.95C5.83902 13.9831 5.9197 14.0002 6.0013 14.0002C6.08291 14.0002 6.16359 13.9831 6.23814 13.95C6.46797 13.8485 11.8346 11.4119 11.8346 7.00014V4.01523C11.8352 3.40295 11.6428 2.80607 11.2848 2.30939C10.9267 1.8127 10.4213 1.44149 9.84022 1.24848ZM8.75347 5.66839L6.26147 8.16039C6.1595 8.26306 6.03817 8.34443 5.90447 8.39979C5.77077 8.45521 5.62745 8.48344 5.48272 8.48298H5.46347C5.31583 8.4807 5.17017 8.44856 5.0353 8.38836C4.90044 8.32822 4.77921 8.24136 4.67889 8.13298L3.33372 6.73298C3.27546 6.6789 3.22887 6.61357 3.19679 6.54083C3.16471 6.46814 3.14782 6.38963 3.14716 6.31018C3.14651 6.23073 3.16209 6.15192 3.19296 6.07871C3.22384 6.0055 3.26935 5.93935 3.3267 5.88434C3.38406 5.82933 3.45205 5.78662 3.5265 5.75884C3.60095 5.73105 3.6803 5.71877 3.75966 5.72274C3.83903 5.72672 3.91675 5.74687 3.98806 5.78196C4.05936 5.81705 4.12274 5.86632 4.1743 5.92681L5.4833 7.29181L7.9263 4.84181C8.03632 4.73555 8.18367 4.67675 8.33662 4.67808C8.48957 4.67941 8.63587 4.74076 8.74402 4.84891C8.85217 4.95707 8.91354 5.10338 8.91488 5.25633C8.91622 5.40927 8.85742 5.55662 8.75114 5.66664L8.75347 5.66839Z" fill="#F71919"/>
</svg>
