<svg width="24" height="24" viewBox="0 0 24 24" fill="none" xmlns="http://www.w3.org/2000/svg">
<g clip-path="url(#clip0_7_36155)">
<path d="M18.581 2.14L12.316 0.0509967C12.1109 -0.0173244 11.8891 -0.0173244 11.684 0.0509967L5.419 2.14C4.42291 2.47088 3.55642 3.10725 2.94265 3.95871C2.32887 4.81016 1.99904 5.83338 2 6.883V12C2 19.563 11.2 23.74 11.594 23.914C11.7218 23.9708 11.8601 24.0001 12 24.0001C12.1399 24.0001 12.2782 23.9708 12.406 23.914C12.8 23.74 22 19.563 22 12V6.883C22.001 5.83338 21.6711 4.81016 21.0574 3.95871C20.4436 3.10725 19.5771 2.47088 18.581 2.14V2.14ZM16.718 9.717L12.446 13.989C12.2712 14.165 12.0632 14.3045 11.834 14.3994C11.6048 14.4944 11.3591 14.5428 11.111 14.542H11.078C10.8249 14.5381 10.5752 14.483 10.344 14.3798C10.1128 14.2767 9.90498 14.1278 9.733 13.942L7.427 11.542C7.32713 11.4493 7.24725 11.3373 7.19226 11.2126C7.13726 11.088 7.10831 10.9534 7.10718 10.8172C7.10606 10.681 7.13278 10.5459 7.1857 10.4204C7.23863 10.2949 7.31665 10.1815 7.41497 10.0872C7.51329 9.9929 7.62985 9.91968 7.75748 9.87205C7.88511 9.82441 8.02113 9.80336 8.15719 9.81017C8.29325 9.81699 8.42648 9.85154 8.54872 9.91169C8.67095 9.97185 8.7796 10.0563 8.868 10.16L11.112 12.5L15.3 8.3C15.4886 8.11784 15.7412 8.01704 16.0034 8.01932C16.2656 8.0216 16.5164 8.12677 16.7018 8.31218C16.8872 8.49759 16.9924 8.7484 16.9947 9.0106C16.997 9.27279 16.8962 9.52539 16.714 9.714L16.718 9.717Z" fill="#27AE60"/>
</g>
<defs>
<clipPath id="clip0_7_36155">
<rect width="24" height="24" fill="white"/>
</clipPath>
</defs>
</svg>
