<svg width="33" height="32" viewBox="0 0 33 32" fill="none" xmlns="http://www.w3.org/2000/svg">
<path d="M9.93695 17.6922C7.19723 17.9398 4.65191 19.2123 2.80982 21.2554C0.967728 23.2985 -0.0354051 25.9615 0.000954941 28.7122V29.0015C0.000954941 29.5319 0.211662 30.0406 0.586742 30.4157C0.961808 30.7907 1.47051 31.0015 2.00095 31.0015C2.53138 31.0015 3.04009 30.7907 3.41517 30.4157C3.79023 30.0406 4.00095 29.5319 4.00095 29.0015V28.6322C3.97191 26.9405 4.56807 25.2977 5.67522 24.0182C6.78237 22.7389 8.32269 21.913 10.001 21.6989C10.928 21.6069 11.864 21.7101 12.7487 22.0017C13.6335 22.2931 14.4474 22.7667 15.1382 23.3918C15.8288 24.0169 16.3811 24.7795 16.7594 25.6309C17.1376 26.4822 17.3335 27.4033 17.3343 28.3349V29.0015C17.3343 29.5319 17.545 30.0406 17.92 30.4157C18.2951 30.7907 18.8039 31.0015 19.3343 31.0015C19.8647 31.0015 20.3735 30.7907 20.7486 30.4157C21.1236 30.0406 21.3343 29.5319 21.3343 29.0015V28.3349C21.3327 26.873 21.031 25.427 20.4478 24.0865C19.8644 22.7459 19.0123 21.5394 17.9438 20.5417C16.8752 19.5439 15.6134 18.7762 14.236 18.2861C12.8588 17.7959 11.3955 17.5938 9.93695 17.6922Z" fill="white"/>
<path d="M10.668 16C12.2502 16 13.7969 15.5308 15.1125 14.6517C16.4281 13.7727 17.4536 12.5233 18.059 11.0615C18.6645 9.59967 18.8229 7.99113 18.5142 6.43928C18.2056 4.88744 17.4437 3.46197 16.3248 2.34315C15.206 1.22433 13.7805 0.462402 12.2286 0.153721C10.6769 -0.15496 9.06837 0.00346613 7.6065 0.608968C6.14469 1.21447 4.89526 2.23985 4.01621 3.55544C3.13716 4.87104 2.66797 6.41775 2.66797 8C2.67009 10.1211 3.51362 12.1547 5.01345 13.6545C6.51329 15.1544 8.5469 15.9979 10.668 16ZM10.668 4C11.459 4 12.2325 4.2346 12.8902 4.67412C13.5481 5.11365 14.0608 5.73836 14.3634 6.46927C14.6662 7.20017 14.7454 8.00444 14.5912 8.78036C14.4368 9.55629 14.0558 10.269 13.4964 10.8284C12.937 11.3878 12.2242 11.7688 11.4484 11.9231C10.6724 12.0775 9.8681 11.9983 9.13717 11.6955C8.40637 11.3928 7.78162 10.8801 7.34209 10.2223C6.90257 9.56449 6.66797 8.79113 6.66797 8C6.66797 6.93913 7.0894 5.92172 7.83954 5.17157C8.5897 4.42143 9.60717 4 10.668 4Z" fill="white"/>
</svg>
