<svg width="25" height="24" viewBox="0 0 25 24" fill="none" xmlns="http://www.w3.org/2000/svg">
<path d="M24.4863 21.4397L19.8325 16.7767C21.4267 14.6429 22.1547 11.9835 21.8699 9.33378C21.5852 6.68403 20.3086 4.24071 18.2975 2.49565C16.2863 0.750596 13.6897 -0.16663 11.0305 -0.0713859C8.37125 0.0238571 5.84674 1.12449 3.96516 3.00897C2.08358 4.89345 0.984638 7.42185 0.889541 10.0852C0.794444 12.7485 1.71026 15.3491 3.45263 17.3634C5.19501 19.3776 7.63457 20.6561 10.2802 20.9413C12.9259 21.2265 15.5812 20.4974 17.7117 18.9007L22.3676 23.5637C22.6485 23.8451 23.0295 24.0032 23.4269 24.0032C23.8243 24.0032 24.2053 23.8451 24.4863 23.5637C24.7673 23.2823 24.9251 22.9007 24.9251 22.5027C24.9251 22.1047 24.7673 21.7231 24.4863 21.4417V21.4397ZM11.4454 18.0007C9.96432 18.0007 8.5165 17.5608 7.28503 16.7367C6.05356 15.9126 5.09374 14.7413 4.52695 13.3708C3.96018 12.0004 3.81188 10.4924 4.10082 9.03755C4.38977 7.5827 5.10298 6.24632 6.15025 5.19743C7.19753 4.14854 8.53185 3.43423 9.98447 3.14484C11.4371 2.85545 12.9428 3.00398 14.3111 3.57163C15.6795 4.13929 16.849 5.10059 17.6718 6.33395C18.4946 7.56732 18.9339 9.01737 18.9339 10.5007C18.9318 12.4892 18.1421 14.3956 16.7382 15.8017C15.3343 17.2077 13.4308 17.9986 11.4454 18.0007Z" fill="#374957"/>
</svg>
